# xmcd CD database file generated by OrangeCD 6.5
#
# Track frame offsets:
#	150
#	17032
#	32370
#	50055
#	65020
#	81532
#	97765
#	116675
#	133120
#	148417
#	171555
#	188100
#	211830
#	228892
#	241100
#	258325
#
# Disc length: 3786 seconds
#
# Revision: 2
# Processed by: cddbd v1.5.2PL0 Copyright (c) Steve Scherf et al.
# Submitted via: OrangeCD 6.5
#
DISCID=e30ec810
DTITLE=Mojo Blues Band - Alligator Walk
DYEAR=1991
DGENRE=Blues
TTITLE0=Alligator Walk
TTITLE1=Talkin' Woman Blues
TTITLE2=Wintertime is coming
TTITLE3=Lousiana Stroll
TTITLE4=Lonesome House
TTITLE5=My tiny thing
TTITLE6=Strange Rumours
TTITLE7=Burnt Child
TTITLE8=Rollin' and Squeezin'
TTITLE9=Black Silk
TTITLE10=Found a new Home *Take1
TTITLE11=Blues in the Night
TTITLE12=Love you too much
TTITLE13=My old "Serenader"
TTITLE14=Down the alley
TTITLE15=Sleepless
EXTD=
EXTT0=
EXTT1=
EXTT2=
EXTT3=
EXTT4=
EXTT5=
EXTT6=
EXTT7=
EXTT8=
EXTT9=
EXTT10=
EXTT11=
EXTT12=
EXTT13=
EXTT14=
EXTT15=
PLAYORDER=
